PathFileType	4	(X/Y/Z)	RBDS021\RBDS021runT35.trc
DataRate	CameraRate	NumFrames	NumMarkers	Units	OrigDataRate	OrigDataStartFrame	OrigNumFrames
150.000000	150.000000	6	33	mm	150.000000	1687	4500
Frame#	Time	L.ASIS			L.Heel.Bottom			L.Heel.Lateral			L.Heel.Top			L.Iliac.Crest			L.MT1			L.MT5			L.PSIS			L.Shank.Bottom.Lateral			L.Shank.Bottom.Medial			L.Shank.Top.Lateral			L.Shank.Top.Medial			L.Thigh.Bottom.Lateral			L.Thigh.Bottom.Medial			L.Thigh.Top.Lateral			L.Thigh.Top.Medial			R.ASIS			R.ASY			R.Heel.Bottom			R.Heel.Lateral			R.Heel.Top			R.Iliac.Crest			R.MT1			R.MT5			R.PSIS			R.Shank.Bottom.Lateral			R.Shank.Bottom.Medial			R.Shank.Top.Lateral			R.Shank.Top.Medial			R.Thigh.Bottom.Lateral			R.Thigh.Bottom.Medial			R.Thigh.Top.Lateral			R.Thigh.Top.Medial			
		X1	Y1	Z1	X2	Y2	Z2	X3	Y3	Z3	X4	Y4	Z4	X5	Y5	Z5	X6	Y6	Z6	X7	Y7	Z7	X8	Y8	Z8	X9	Y9	Z9	X10	Y10	Z10	X11	Y11	Z11	X12	Y12	Z12	X13	Y13	Z13	X14	Y14	Z14	X15	Y15	Z15	X16	Y16	Z16	X17	Y17	Z17	X18	Y18	Z18	X19	Y19	Z19	X20	Y20	Z20	X21	Y21	Z21	X22	Y22	Z22	X23	Y23	Z23	X24	Y24	Z24	X25	Y25	Z25	X26	Y26	Z26	X27	Y27	Z27	X28	Y28	Z28	X29	Y29	Z29	X30	Y30	Z30	X31	Y31	Z31	X32	Y32	Z32	X33	Y33	Z33	

1688	11.24666666666667	2107.984491747201	962.32070156917	931.4869705148371	1508.285532046987	507.2437823939341	1049.762205401327	1509.794618812677	497.1803717019081	992.1685553800977	1549.416535158917	493.1352051636217	1030.589285046335	2058.364986048106	1055.357922599782	888.0902079728933	1476.294321709763	295.3347748147473	1000.520065965645	1452.201686020221	369.8789382756102	917.0799508946423	1933.717427684876	1012.90731867244	989.4267944653831	1615.702476514248	455.9510976559757	934.9823397758925	1618.535272514708	487.9341247920297	980.4720149544473	1690.635534335329	476.7808179992621	916.0832765966685	1693.763478171185	509.1047647784985	958.8777088711499	1964.626681702128	597.6023653059549	869.7500631446338	1908.853059155574	616.3319431087037	910.4342715249205	1981.29651661923	704.0787581553857	847.5058692732388	1925.640001821559	722.0099313614592	883.8321615573564	2099.302981599474	965.7823111426271	1149.525648213532	2287.544912431561	82.29565814557709	1113.510460621278	2121.192890843239	49.16734356074025	1033.411396552135	2132.436451823419	53.45245634124078	1087.838136089458	2128.336024210882	90.46357262485523	1048.678831843341	2034.915487419822	1035.209973433625	1198.651924518446	2332.737516870864	56.01743196605216	1064.965218852489	2272.971697568278	28.64758049683454	1160.02592448807	1923.69783598464	1005.957459327918	1071.826326559745	2156.327622640756	173.6476924202094	1133.127778013292	2135.848244629987	185.7099557468021	1087.624204964539	2144.779336819048	253.875225091122	1157.489488654533	2122.1596235982	261.8739759238418	1109.950229164862	2125.617752183542	627.6300627650185	1208.304698288017	2069.996065946926	599.7268851563824	1170.069493750118	2068.822972106634	720.8917999602382	1217.180396370621	2016.212897350257	694.4953698435064	1180.665953107417	
1689	11.25333333333333	2106.570783043762	957.1023591019657	932.2755956322973	1524.234193200891	515.6036013590793	1049.940980466445	1526.170660601118	506.0649230989944	992.2285271383732	1565.090011949594	500.2075039410686	1031.271136176033	2057.586916275216	1048.857947679646	887.8717230406617	1485.26889543846	304.8587605080588	997.9707012631351	1465.087699288332	381.3515958221586	914.9647918719672	1931.617136881594	1006.226973692407	990.0567243313556	1630.375633789627	460.4596669401224	934.8125337356672	1634.525774630211	492.2631471620836	980.29767195268	1705.859250851465	478.0384205278205	915.7384337135812	1710.452109667397	510.0760099419878	958.5519348849643	1972.973233752227	590.050306941095	869.4112902885792	1916.784253633543	606.7836988020401	910.3823375303671	1986.153402898677	697.162611003624	847.6011027644226	1930.246870583083	713.1720494151238	884.4305710991615	2098.061479984051	961.0649444692282	1149.609097038176	2265.265113198651	78.88201863674732	1108.79288539985	2098.788998296422	44.04608176435249	1029.510786801335	2109.833925092074	50.71764161678148	1083.611743103966	2106.462879834186	85.88359333359176	1042.844662296794	2035.416136550277	1029.528379552457	1199.345077598788	2310.449241374401	50.53412498654037	1061.639836426004	2249.639666513458	28.2035797933273	1157.998602503135	1921.931908530626	1000.526768623037	1072.666140316864	2138.409422170538	170.137978756666	1128.486306722992	2118.276287937109	183.6182207999871	1083.178512726623	2130.540996462194	250.4477935735727	1153.876552333749	2108.125815281048	259.9494909493631	1106.500859016754	2121.503850724483	622.312040486418	1208.626009905175	2066.109013987888	594.9250299335166	1169.831758135405	2064.9113988241	715.8280103403821	1217.809639368383	2012.687883114561	689.974987313778	1180.541189472081	
1690	11.26	2104.813693592522	951.4822617992038	933.2618152958028	1540.568583051505	522.8276473188641	1049.216416431879	1543.240146125773	513.4619989015874	991.5249344214727	1581.275406323128	506.3304011762062	1031.2837646766	2056.892291859018	1041.787541945898	887.716393852071	1496.253490147844	313.0965162067105	995.8403980486263	1479.76008017632	390.6563562672665	912.779101398294	1929.077942177329	999.513875118717	990.6090995539538	1646.147085084363	464.0840277837297	934.4469607633824	1651.416389533297	495.7422070672877	979.8840518703952	1722.058397854433	478.5678575072729	915.2983232829556	1727.917147269744	510.3552800859825	958.0887027055513	1982.000394377115	582.7754688952501	869.1533077803547	1925.156749802083	597.3602852280861	909.9531027969371	1991.549887191149	690.4225543469505	847.8079460944763	1935.21389922343	704.3716928441178	884.7350990474841	2096.26250690429	956.3560995916505	1149.718834706092	2242.377942291455	76.50713483383934	1104.227300653122	2075.705259671823	39.60635845378889	1026.182948111813	2086.707541659771	48.811625340357	1079.894487643572	2083.891043002341	82.01118367796393	1037.474069022482	2035.667175376697	1023.605642538935	1199.984365386553	2287.470850132233	46.21714698375825	1058.498063364371	2226.012966662423	28.68482422287198	1156.154441668905	1919.716840732325	995.2316569533748	1073.328424147699	2120.255842927237	167.5050474429442	1124.218678131892	2100.358514495801	182.3652458150596	1079.192880410301	2116.276339772715	247.8084801435949	1150.535366942198	2093.875527151471	258.7493657416644	1103.454527453416	2117.005139358681	617.119421543895	1208.727458784053	2061.926443628027	590.2898585621358	1169.21462346444	2060.553787717061	710.8355466541392	1218.27849926151	2008.802057941707	685.5358199872996	1180.109816670455	
1691	11.26666666666667	2102.732919958481	945.5529951797531	934.4295788689792	1557.104557504247	528.9302781737256	1047.563532438917	1560.752310528536	519.3531776764357	990.0362768714864	1597.795027341404	511.5190407807191	1030.574177791691	2056.138444281332	1034.277204106283	887.6172666880441	1509.080407818203	319.9012944199412	994.2069554469047	1495.902696379707	397.6430620790376	910.595032515468	1926.146690176677	992.947271305856	991.059793759492	1662.828038532607	466.8519344941475	933.8812350364	1669.011908696182	498.399530563719	979.247690154217	1739.080602734301	478.4674980323157	914.7863421045517	1745.986025774423	510.0514828916653	957.5265594683466	1991.719493516259	575.9985804831059	868.9861225090779	1934.021540845905	588.2548833011617	909.2013610966443	1997.473936189211	684.0626509994507	848.1470345574688	1940.554929109864	695.7870473799445	884.8022204904461	2093.918759843667	951.7716086468997	1149.933584066713	2219.207767618611	75.02417072764038	1100.106995648135	2052.276536636624	36.04738874801969	1023.526315913127	2063.370603414963	47.70822080312528	1076.822931081898	2060.953284828493	78.98744399891035	1032.837261669441	2035.533369712608	1017.509843061057	1200.562851348886	2264.129255017073	43.04261265403189	1055.746254423545	2202.365789971317	29.77830400769439	1154.577745042558	1917.102157311485	990.1879010784876	1073.755939313961	2102.059136876286	165.7203864624009	1120.57233670907	2082.310546789766	181.8858169317798	1075.89303762586	2102.067890271901	245.9142234446321	1147.658852694663	2079.526379464461	258.2022402047517	1100.977670983933	2112.116097700409	612.1484387177343	1208.651304852459	2057.397072266137	585.9241068845007	1168.31598768894	2055.829392433602	706.053075845409	1218.604855484318	2004.577017047112	681.3267033685358	1179.464797468376	
1692	11.27333333333333	2100.367722478064	939.4296693950124	935.743554311659	1573.675155323526	533.8944793522512	1045.002545022165	1578.465429712121	523.7200831666493	987.7802682443707	1614.480648080837	515.7622949860378	1029.123367101524	2055.158823267606	1026.501218458655	887.5613629805582	1523.558569390298	325.1358764536048	993.1148813511415	1513.199452560817	402.2165716267286	908.4822444541876	1922.90033346647	986.7110512240774	991.3942521171657	1680.217426184168	468.7902379407591	933.1165604713746	1687.106072431261	500.2607941438588	978.4110285656786	1756.76042822789	477.8436385659942	914.2261788981668	1764.477259969386	509.276847429394	956.9064466949218	2002.107098956444	569.9384714933117	868.9180332620288	1943.41995541397	579.6671027467681	908.2111873638212	2003.87825049624	678.2793764464869	848.6315707043841	1946.267923121735	687.595946348606	884.7073603914488	2091.089542530955	947.421396705275	1150.329228098345	2195.989435581133	74.23512460932366	1096.669951989924	2028.753277317636	33.48287393188637	1021.591000894656	2040.040827690451	47.32270347805503	1074.48640996856	2037.898393371762	76.87767652033945	1029.135370715005	2034.890637875717	1011.342755679981	1201.08062264663	2240.666646570385	40.89503384476118	1053.545556349999	2178.862854993828	31.16983612803067	1153.342704298884	1914.170978892168	985.5007785617686	1073.913906818644	2083.918651977785	164.6975266947454	1117.730169213775	2064.258235093892	182.0672840007664	1073.438109996029	2087.913836452848	244.671577269465	1145.393110187483	2065.121948758734	258.2011180475554	1099.184843323603	2106.857324373834	607.4836301179927	1208.455126688404	2052.481498943665	581.9123297553086	1167.276119855696	2050.84571312627	701.6077538121079	1218.82533791884	2000.051302330394	677.4815770475935	1178.737199534814	
1693	11.28	2097.774861493891	933.2500316966147	937.1495917675865	1590.12442995634	537.6661140766385	1041.600287615686	1596.150045309018	526.538906302931	984.8152627142189	1631.169217563737	519.0197756409021	1026.950460925918	2053.777862040072	1018.676174325209	887.5300899428131	1539.487674605469	328.6797264492059	992.5747080218182	1531.355566635971	404.3363949405555	906.5044953651422	1919.439067554881	980.981987898179	991.6136514482089	1698.10669355455	469.9217243086721	932.1612383946539	1705.484909429706	501.3488369525228	977.3999496395879	1774.92086214041	476.8038182556139	913.6396233031943	1783.201770584095	508.1420172391882	956.2666016317503	2013.103305284586	564.7990083147005	868.955309567814	1953.375028732889	571.7933537071897	907.0871445678082	2010.682584073394	673.2489948960136	849.2649805119622	1952.332392418524	679.9665537453686	884.5346742616628	2087.877760177998	943.3988153419416	1150.963795947584	2172.864782058246	73.92399837237706	1094.069028497854	2005.296733850781	31.93229210053331	1020.373699265074	2016.841754850189	47.52758485045838	1072.916110954759	2014.88596448664	75.66840895653597	1026.476952277364	2033.64666065168	1005.237687530341	1201.546117957793	2217.235727875169	39.59607059712265	1051.990748236439	2155.570546866943	32.58456013191685	1152.498772491499	1911.031990698194	981.2603890012223	1073.79964647152	2065.846805687244	164.307197478329	1115.787959513375	2046.240575943954	182.7652995097615	1071.900441016908	2073.739096755595	243.9511339777513	1143.818766602351	2050.636994346889	258.6159426762998	1098.123827581715	2101.267989035609	603.1867543195331	1208.207623546424	2047.150541635827	578.3118585006057	1166.263865400476	2045.722088977151	697.5999129430836	1218.992508889077	1995.271630775194	674.1043193091574	1178.082394983909	
